<?xml version="1.0" encoding="UTF-8" standalone="no"?>
<!DOCTYPE svg PUBLIC "-//W3C//DTD SVG 1.1//EN"
 "http://www.w3.org/Graphics/SVG/1.1/DTD/svg11.dtd">
<!-- Generated by graphviz version 2.43.0 (0)
 -->
<!-- Title: G Pages: 1 -->
<svg width="2873pt" height="731pt"
 viewBox="0.00 0.00 2873.20 730.58" xmlns="http://www.w3.org/2000/svg" xmlns:xlink="http://www.w3.org/1999/xlink">
<g id="graph0" class="graph" transform="scale(1 1) rotate(0) translate(21.6 708.98)">
<title>G</title>
<polygon fill="#111111" stroke="transparent" points="-21.6,21.6 -21.6,-708.98 2851.6,-708.98 2851.6,21.6 -21.6,21.6"/>
<!-- app/api/health/route.ts -->
<g id="node1" class="node">
<title>app/api/health/route.ts</title>
<path fill="none" stroke="#cfffac" d="M233.33,-23C233.33,-23 98.67,-23 98.67,-23 94.83,-23 91,-19.17 91,-15.33 91,-15.33 91,-7.67 91,-7.67 91,-3.83 94.83,0 98.67,0 98.67,0 233.33,0 233.33,0 237.17,0 241,-3.83 241,-7.67 241,-7.67 241,-15.33 241,-15.33 241,-19.17 237.17,-23 233.33,-23"/>
<text text-anchor="middle" x="166" y="-7.8" font-family="Arial" font-size="14.00" fill="#cfffac">app/api/health/route.ts</text>
</g>
<!-- app/layout.tsx -->
<g id="node2" class="node">
<title>app/layout.tsx</title>
<path fill="none" stroke="#c6c5fe" d="M208.33,-64C208.33,-64 123.67,-64 123.67,-64 119.83,-64 116,-60.17 116,-56.33 116,-56.33 116,-48.67 116,-48.67 116,-44.83 119.83,-41 123.67,-41 123.67,-41 208.33,-41 208.33,-41 212.17,-41 216,-44.83 216,-48.67 216,-48.67 216,-56.33 216,-56.33 216,-60.17 212.17,-64 208.33,-64"/>
<text text-anchor="middle" x="166" y="-48.8" font-family="Arial" font-size="14.00" fill="#c6c5fe">app/layout.tsx</text>
</g>
<!-- styles/tailwind.css -->
<g id="node3" class="node">
<title>styles/tailwind.css</title>
<path fill="none" stroke="#cfffac" d="M520.83,-64C520.83,-64 412.17,-64 412.17,-64 408.33,-64 404.5,-60.17 404.5,-56.33 404.5,-56.33 404.5,-48.67 404.5,-48.67 404.5,-44.83 408.33,-41 412.17,-41 412.17,-41 520.83,-41 520.83,-41 524.67,-41 528.5,-44.83 528.5,-48.67 528.5,-48.67 528.5,-56.33 528.5,-56.33 528.5,-60.17 524.67,-64 520.83,-64"/>
<text text-anchor="middle" x="466.5" y="-48.8" font-family="Arial" font-size="14.00" fill="#cfffac">styles/tailwind.css</text>
</g>
<!-- app/layout.tsx&#45;&gt;styles/tailwind.css -->
<g id="edge1" class="edge">
<title>app/layout.tsx&#45;&gt;styles/tailwind.css</title>
<path fill="none" stroke="#757575" d="M216.29,-52.5C264.77,-52.5 339.3,-52.5 394.23,-52.5"/>
<polygon fill="#757575" stroke="#757575" points="394.24,-56 404.24,-52.5 394.24,-49 394.24,-56"/>
</g>
<!-- app/page.tsx -->
<g id="node4" class="node">
<title>app/page.tsx</title>
<path fill="none" stroke="#c6c5fe" d="M205.33,-105C205.33,-105 126.67,-105 126.67,-105 122.83,-105 119,-101.17 119,-97.33 119,-97.33 119,-89.67 119,-89.67 119,-85.83 122.83,-82 126.67,-82 126.67,-82 205.33,-82 205.33,-82 209.17,-82 213,-85.83 213,-89.67 213,-89.67 213,-97.33 213,-97.33 213,-101.17 209.17,-105 205.33,-105"/>
<text text-anchor="middle" x="166" y="-89.8" font-family="Arial" font-size="14.00" fill="#c6c5fe">app/page.tsx</text>
</g>
<!-- components/Button/Button.tsx -->
<g id="node5" class="node">
<title>components/Button/Button.tsx</title>
<path fill="none" stroke="#cfffac" d="M557.33,-146C557.33,-146 375.67,-146 375.67,-146 371.83,-146 368,-142.17 368,-138.33 368,-138.33 368,-130.67 368,-130.67 368,-126.83 371.83,-123 375.67,-123 375.67,-123 557.33,-123 557.33,-123 561.17,-123 565,-126.83 565,-130.67 565,-130.67 565,-138.33 565,-138.33 565,-142.17 561.17,-146 557.33,-146"/>
<text text-anchor="middle" x="466.5" y="-130.8" font-family="Arial" font-size="14.00" fill="#cfffac">components/Button/Button.tsx</text>
</g>
<!-- app/page.tsx&#45;&gt;components/Button/Button.tsx -->
<g id="edge2" class="edge">
<title>app/page.tsx&#45;&gt;components/Button/Button.tsx</title>
<path fill="none" stroke="#757575" d="M213.29,-98.67C246.39,-102.47 291.99,-107.93 332,-113.5 349.19,-115.89 367.6,-118.66 385.08,-121.38"/>
<polygon fill="#757575" stroke="#757575" points="384.82,-124.88 395.25,-122.97 385.91,-117.96 384.82,-124.88"/>
</g>
<!-- lp&#45;items.tsx -->
<g id="node6" class="node">
<title>lp&#45;items.tsx</title>
<path fill="none" stroke="#cfffac" d="M501.83,-105C501.83,-105 431.17,-105 431.17,-105 427.33,-105 423.5,-101.17 423.5,-97.33 423.5,-97.33 423.5,-89.67 423.5,-89.67 423.5,-85.83 427.33,-82 431.17,-82 431.17,-82 501.83,-82 501.83,-82 505.67,-82 509.5,-85.83 509.5,-89.67 509.5,-89.67 509.5,-97.33 509.5,-97.33 509.5,-101.17 505.67,-105 501.83,-105"/>
<text text-anchor="middle" x="466.5" y="-89.8" font-family="Arial" font-size="14.00" fill="#cfffac">lp&#45;items.tsx</text>
</g>
<!-- app/page.tsx&#45;&gt;lp&#45;items.tsx -->
<g id="edge3" class="edge">
<title>app/page.tsx&#45;&gt;lp&#45;items.tsx</title>
<path fill="none" stroke="#757575" d="M213.31,-93.5C267.42,-93.5 356.73,-93.5 413.26,-93.5"/>
<polygon fill="#757575" stroke="#757575" points="413.42,-97 423.42,-93.5 413.42,-90 413.42,-97"/>
</g>
<!-- client/src/Admin/Admin.jsx -->
<g id="node7" class="node">
<title>client/src/Admin/Admin.jsx</title>
<path fill="none" stroke="#c6c5fe" d="M1263.83,-352C1263.83,-352 1103.17,-352 1103.17,-352 1099.33,-352 1095.5,-348.17 1095.5,-344.33 1095.5,-344.33 1095.5,-336.67 1095.5,-336.67 1095.5,-332.83 1099.33,-329 1103.17,-329 1103.17,-329 1263.83,-329 1263.83,-329 1267.67,-329 1271.5,-332.83 1271.5,-336.67 1271.5,-336.67 1271.5,-344.33 1271.5,-344.33 1271.5,-348.17 1267.67,-352 1263.83,-352"/>
<text text-anchor="middle" x="1183.5" y="-336.8" font-family="Arial" font-size="14.00" fill="#c6c5fe">client/src/Admin/Admin.jsx</text>
</g>
<!-- client/src/Admin/Admin.routes.jsx -->
<g id="node8" class="node">
<title>client/src/Admin/Admin.routes.jsx</title>
<path fill="none" stroke="#c6c5fe" d="M1571.83,-352C1571.83,-352 1370.17,-352 1370.17,-352 1366.33,-352 1362.5,-348.17 1362.5,-344.33 1362.5,-344.33 1362.5,-336.67 1362.5,-336.67 1362.5,-332.83 1366.33,-329 1370.17,-329 1370.17,-329 1571.83,-329 1571.83,-329 1575.67,-329 1579.5,-332.83 1579.5,-336.67 1579.5,-336.67 1579.5,-344.33 1579.5,-344.33 1579.5,-348.17 1575.67,-352 1571.83,-352"/>
<text text-anchor="middle" x="1471" y="-336.8" font-family="Arial" font-size="14.00" fill="#c6c5fe">client/src/Admin/Admin.routes.jsx</text>
</g>
<!-- client/src/Admin/Admin.jsx&#45;&gt;client/src/Admin/Admin.routes.jsx -->
<g id="edge4" class="edge">
<title>client/src/Admin/Admin.jsx&#45;&gt;client/src/Admin/Admin.routes.jsx</title>
<path fill="none" stroke="#757575" d="M1271.71,-340.5C1297.08,-340.5 1325.23,-340.5 1352.16,-340.5"/>
<polygon fill="#757575" stroke="#757575" points="1352.41,-344 1362.41,-340.5 1352.41,-337 1352.41,-344"/>
</g>
<!-- client/src/Admin/Login/login.api.js -->
<g id="node9" class="node">
<title>client/src/Admin/Login/login.api.js</title>
<path fill="none" stroke="#cfffac" d="M2159.33,-332C2159.33,-332 1957.67,-332 1957.67,-332 1953.83,-332 1950,-328.17 1950,-324.33 1950,-324.33 1950,-316.67 1950,-316.67 1950,-312.83 1953.83,-309 1957.67,-309 1957.67,-309 2159.33,-309 2159.33,-309 2163.17,-309 2167,-312.83 2167,-316.67 2167,-316.67 2167,-324.33 2167,-324.33 2167,-328.17 2163.17,-332 2159.33,-332"/>
<text text-anchor="middle" x="2058.5" y="-316.8" font-family="Arial" font-size="14.00" fill="#cfffac">client/src/Admin/Login/login.api.js</text>
</g>
<!-- client/src/Admin/Admin.jsx&#45;&gt;client/src/Admin/Login/login.api.js -->
<g id="edge5" class="edge">
<title>client/src/Admin/Admin.jsx&#45;&gt;client/src/Admin/Login/login.api.js</title>
<path fill="none" stroke="#757575" d="M1253.38,-328.98C1279.49,-325.15 1309.54,-321.38 1337,-319.5 1578.66,-302.94 1639.78,-318.81 1882,-319.5 1900.68,-319.55 1920.48,-319.64 1939.79,-319.74"/>
<polygon fill="#757575" stroke="#757575" points="1939.82,-323.24 1949.84,-319.79 1939.86,-316.24 1939.82,-323.24"/>
</g>
<!-- client/src/Admin/Location/index.js -->
<g id="node10" class="node">
<title>client/src/Admin/Location/index.js</title>
<path fill="none" stroke="#c6c5fe" d="M1862.33,-272C1862.33,-272 1660.67,-272 1660.67,-272 1656.83,-272 1653,-268.17 1653,-264.33 1653,-264.33 1653,-256.67 1653,-256.67 1653,-252.83 1656.83,-249 1660.67,-249 1660.67,-249 1862.33,-249 1862.33,-249 1866.17,-249 1870,-252.83 1870,-256.67 1870,-256.67 1870,-264.33 1870,-264.33 1870,-268.17 1866.17,-272 1862.33,-272"/>
<text text-anchor="middle" x="1761.5" y="-256.8" font-family="Arial" font-size="14.00" fill="#c6c5fe">client/src/Admin/Location/index.js</text>
</g>
<!-- client/src/Admin/Admin.routes.jsx&#45;&gt;client/src/Admin/Location/index.js -->
<g id="edge6" class="edge">
<title>client/src/Admin/Admin.routes.jsx&#45;&gt;client/src/Admin/Location/index.js</title>
<path fill="none" stroke="#757575" d="M1513.64,-328.95C1565.31,-314.63 1653.4,-290.2 1709.19,-274.73"/>
<polygon fill="#757575" stroke="#757575" points="1710.17,-278.09 1718.87,-272.04 1708.3,-271.34 1710.17,-278.09"/>
</g>
<!-- client/src/Admin/Login/UserAuth.jsx -->
<g id="node11" class="node">
<title>client/src/Admin/Login/UserAuth.jsx</title>
<path fill="none" stroke="#c6c5fe" d="M1868.83,-352C1868.83,-352 1654.17,-352 1654.17,-352 1650.33,-352 1646.5,-348.17 1646.5,-344.33 1646.5,-344.33 1646.5,-336.67 1646.5,-336.67 1646.5,-332.83 1650.33,-329 1654.17,-329 1654.17,-329 1868.83,-329 1868.83,-329 1872.67,-329 1876.5,-332.83 1876.5,-336.67 1876.5,-336.67 1876.5,-344.33 1876.5,-344.33 1876.5,-348.17 1872.67,-352 1868.83,-352"/>
<text text-anchor="middle" x="1761.5" y="-336.8" font-family="Arial" font-size="14.00" fill="#c6c5fe">client/src/Admin/Login/UserAuth.jsx</text>
</g>
<!-- client/src/Admin/Admin.routes.jsx&#45;&gt;client/src/Admin/Login/UserAuth.jsx -->
<g id="edge7" class="edge">
<title>client/src/Admin/Admin.routes.jsx&#45;&gt;client/src/Admin/Login/UserAuth.jsx</title>
<path fill="none" stroke="#757575" d="M1579.84,-340.5C1598.15,-340.5 1617.3,-340.5 1636.01,-340.5"/>
<polygon fill="#757575" stroke="#757575" points="1636.04,-344 1646.04,-340.5 1636.04,-337 1636.04,-344"/>
</g>
<!-- client/src/Admin/Login/index.js -->
<g id="node12" class="node">
<title>client/src/Admin/Login/index.js</title>
<path fill="none" stroke="#c6c5fe" d="M1853.33,-393C1853.33,-393 1669.67,-393 1669.67,-393 1665.83,-393 1662,-389.17 1662,-385.33 1662,-385.33 1662,-377.67 1662,-377.67 1662,-373.83 1665.83,-370 1669.67,-370 1669.67,-370 1853.33,-370 1853.33,-370 1857.17,-370 1861,-373.83 1861,-377.67 1861,-377.67 1861,-385.33 1861,-385.33 1861,-389.17 1857.17,-393 1853.33,-393"/>
<text text-anchor="middle" x="1761.5" y="-377.8" font-family="Arial" font-size="14.00" fill="#c6c5fe">client/src/Admin/Login/index.js</text>
</g>
<!-- client/src/Admin/Admin.routes.jsx&#45;&gt;client/src/Admin/Login/index.js -->
<g id="edge8" class="edge">
<title>client/src/Admin/Admin.routes.jsx&#45;&gt;client/src/Admin/Login/index.js</title>
<path fill="none" stroke="#757575" d="M1553.13,-352.03C1589.24,-357.16 1631.91,-363.23 1669.13,-368.52"/>
<polygon fill="#757575" stroke="#757575" points="1669.09,-372.04 1679.48,-369.99 1670.07,-365.11 1669.09,-372.04"/>
</g>
<!-- client/src/Admin/Location/AddLocation.jsx -->
<g id="node13" class="node">
<title>client/src/Admin/Location/AddLocation.jsx</title>
<path fill="none" stroke="#c6c5fe" d="M2513.33,-271C2513.33,-271 2262.67,-271 2262.67,-271 2258.83,-271 2255,-267.17 2255,-263.33 2255,-263.33 2255,-255.67 2255,-255.67 2255,-251.83 2258.83,-248 2262.67,-248 2262.67,-248 2513.33,-248 2513.33,-248 2517.17,-248 2521,-251.83 2521,-255.67 2521,-255.67 2521,-263.33 2521,-263.33 2521,-267.17 2517.17,-271 2513.33,-271"/>
<text text-anchor="middle" x="2388" y="-255.8" font-family="Arial" font-size="14.00" fill="#c6c5fe">client/src/Admin/Location/AddLocation.jsx</text>
</g>
<!-- client/src/Admin/Location/index.js&#45;&gt;client/src/Admin/Location/AddLocation.jsx -->
<g id="edge12" class="edge">
<title>client/src/Admin/Location/index.js&#45;&gt;client/src/Admin/Location/AddLocation.jsx</title>
<path fill="none" stroke="#757575" d="M1870.21,-260.33C1973.77,-260.16 2130.92,-259.91 2244.73,-259.73"/>
<polygon fill="#757575" stroke="#757575" points="2244.92,-263.23 2254.92,-259.71 2244.91,-256.23 2244.92,-263.23"/>
</g>
<!-- client/src/Admin/Location/LocationsTable.jsx -->
<g id="node15" class="node">
<title>client/src/Admin/Location/LocationsTable.jsx</title>
<path fill="none" stroke="#c6c5fe" d="M2191.33,-232C2191.33,-232 1925.67,-232 1925.67,-232 1921.83,-232 1918,-228.17 1918,-224.33 1918,-224.33 1918,-216.67 1918,-216.67 1918,-212.83 1921.83,-209 1925.67,-209 1925.67,-209 2191.33,-209 2191.33,-209 2195.17,-209 2199,-212.83 2199,-216.67 2199,-216.67 2199,-224.33 2199,-224.33 2199,-228.17 2195.17,-232 2191.33,-232"/>
<text text-anchor="middle" x="2058.5" y="-216.8" font-family="Arial" font-size="14.00" fill="#c6c5fe">client/src/Admin/Location/LocationsTable.jsx</text>
</g>
<!-- client/src/Admin/Location/index.js&#45;&gt;client/src/Admin/Location/LocationsTable.jsx -->
<g id="edge13" class="edge">
<title>client/src/Admin/Location/index.js&#45;&gt;client/src/Admin/Location/LocationsTable.jsx</title>
<path fill="none" stroke="#757575" d="M1847.43,-248.98C1883.37,-244.11 1925.39,-238.41 1962.37,-233.4"/>
<polygon fill="#757575" stroke="#757575" points="1963.22,-236.82 1972.66,-232 1962.28,-229.88 1963.22,-236.82"/>
</g>
<!-- client/src/Admin/Login/UserAuth.jsx&#45;&gt;client/src/Admin/Login/login.api.js -->
<g id="edge14" class="edge">
<title>client/src/Admin/Login/UserAuth.jsx&#45;&gt;client/src/Admin/Login/login.api.js</title>
<path fill="none" stroke="#757575" d="M1876.55,-332.77C1897.18,-331.37 1918.72,-329.91 1939.45,-328.5"/>
<polygon fill="#757575" stroke="#757575" points="1939.82,-331.99 1949.56,-327.82 1939.34,-325 1939.82,-331.99"/>
</g>
<!-- client/src/Admin/Login/Google.jsx -->
<g id="node16" class="node">
<title>client/src/Admin/Login/Google.jsx</title>
<path fill="none" stroke="#cfffac" d="M2159.83,-393C2159.83,-393 1957.17,-393 1957.17,-393 1953.33,-393 1949.5,-389.17 1949.5,-385.33 1949.5,-385.33 1949.5,-377.67 1949.5,-377.67 1949.5,-373.83 1953.33,-370 1957.17,-370 1957.17,-370 2159.83,-370 2159.83,-370 2163.67,-370 2167.5,-373.83 2167.5,-377.67 2167.5,-377.67 2167.5,-385.33 2167.5,-385.33 2167.5,-389.17 2163.67,-393 2159.83,-393"/>
<text text-anchor="middle" x="2058.5" y="-377.8" font-family="Arial" font-size="14.00" fill="#cfffac">client/src/Admin/Login/Google.jsx</text>
</g>
<!-- client/src/Admin/Login/index.js&#45;&gt;client/src/Admin/Login/Google.jsx -->
<g id="edge15" class="edge">
<title>client/src/Admin/Login/index.js&#45;&gt;client/src/Admin/Login/Google.jsx</title>
<path fill="none" stroke="#757575" d="M1861.14,-381.5C1886.13,-381.5 1913.23,-381.5 1939.09,-381.5"/>
<polygon fill="#757575" stroke="#757575" points="1939.31,-385 1949.31,-381.5 1939.31,-378 1939.31,-385"/>
</g>
<!-- client/src/Admin/Login/Login.jsx -->
<g id="node17" class="node">
<title>client/src/Admin/Login/Login.jsx</title>
<path fill="none" stroke="#cfffac" d="M2153.83,-434C2153.83,-434 1963.17,-434 1963.17,-434 1959.33,-434 1955.5,-430.17 1955.5,-426.33 1955.5,-426.33 1955.5,-418.67 1955.5,-418.67 1955.5,-414.83 1959.33,-411 1963.17,-411 1963.17,-411 2153.83,-411 2153.83,-411 2157.67,-411 2161.5,-414.83 2161.5,-418.67 2161.5,-418.67 2161.5,-426.33 2161.5,-426.33 2161.5,-430.17 2157.67,-434 2153.83,-434"/>
<text text-anchor="middle" x="2058.5" y="-418.8" font-family="Arial" font-size="14.00" fill="#cfffac">client/src/Admin/Login/Login.jsx</text>
</g>
<!-- client/src/Admin/Login/index.js&#45;&gt;client/src/Admin/Login/Login.jsx -->
<g id="edge16" class="edge">
<title>client/src/Admin/Login/index.js&#45;&gt;client/src/Admin/Login/Login.jsx</title>
<path fill="none" stroke="#757575" d="M1845.46,-393.03C1882.53,-398.18 1926.39,-404.28 1964.56,-409.58"/>
<polygon fill="#757575" stroke="#757575" points="1964.27,-413.08 1974.65,-410.99 1965.23,-406.14 1964.27,-413.08"/>
</g>
<!-- client/src/Admin/Location/location.api.js -->
<g id="node14" class="node">
<title>client/src/Admin/Location/location.api.js</title>
<path fill="none" stroke="#cfffac" d="M2822.33,-231C2822.33,-231 2584.67,-231 2584.67,-231 2580.83,-231 2577,-227.17 2577,-223.33 2577,-223.33 2577,-215.67 2577,-215.67 2577,-211.83 2580.83,-208 2584.67,-208 2584.67,-208 2822.33,-208 2822.33,-208 2826.17,-208 2830,-211.83 2830,-215.67 2830,-215.67 2830,-223.33 2830,-223.33 2830,-227.17 2826.17,-231 2822.33,-231"/>
<text text-anchor="middle" x="2703.5" y="-215.8" font-family="Arial" font-size="14.00" fill="#cfffac">client/src/Admin/Location/location.api.js</text>
</g>
<!-- client/src/Admin/Location/AddLocation.jsx&#45;&gt;client/src/Admin/Location/location.api.js -->
<g id="edge9" class="edge">
<title>client/src/Admin/Location/AddLocation.jsx&#45;&gt;client/src/Admin/Location/location.api.js</title>
<path fill="none" stroke="#757575" d="M2479.26,-247.98C2517.78,-243.07 2562.87,-237.32 2602.41,-232.27"/>
<polygon fill="#757575" stroke="#757575" points="2602.86,-235.74 2612.34,-231 2601.98,-228.8 2602.86,-235.74"/>
</g>
<!-- client/src/Admin/Location/LocationsTable.jsx&#45;&gt;client/src/Admin/Location/AddLocation.jsx -->
<g id="edge10" class="edge">
<title>client/src/Admin/Location/LocationsTable.jsx&#45;&gt;client/src/Admin/Location/AddLocation.jsx</title>
<path fill="none" stroke="#757575" d="M2156.43,-232.04C2195.38,-236.68 2240.42,-242.04 2280.3,-246.79"/>
<polygon fill="#757575" stroke="#757575" points="2279.97,-250.28 2290.32,-247.99 2280.8,-243.33 2279.97,-250.28"/>
</g>
<!-- client/src/Admin/Location/LocationsTable.jsx&#45;&gt;client/src/Admin/Location/location.api.js -->
<g id="edge11" class="edge">
<title>client/src/Admin/Location/LocationsTable.jsx&#45;&gt;client/src/Admin/Location/location.api.js</title>
<path fill="none" stroke="#757575" d="M2199.02,-220.28C2307.98,-220.11 2458.51,-219.88 2566.54,-219.71"/>
<polygon fill="#757575" stroke="#757575" points="2566.87,-223.21 2576.86,-219.7 2566.86,-216.21 2566.87,-223.21"/>
</g>
<!-- client/src/Admin/index.js -->
<g id="node18" class="node">
<title>client/src/Admin/index.js</title>
<path fill="none" stroke="#c6c5fe" d="M1006.33,-321C1006.33,-321 859.67,-321 859.67,-321 855.83,-321 852,-317.17 852,-313.33 852,-313.33 852,-305.67 852,-305.67 852,-301.83 855.83,-298 859.67,-298 859.67,-298 1006.33,-298 1006.33,-298 1010.17,-298 1014,-301.83 1014,-305.67 1014,-305.67 1014,-313.33 1014,-313.33 1014,-317.17 1010.17,-321 1006.33,-321"/>
<text text-anchor="middle" x="933" y="-305.8" font-family="Arial" font-size="14.00" fill="#c6c5fe">client/src/Admin/index.js</text>
</g>
<!-- client/src/Admin/index.js&#45;&gt;client/src/Admin/Admin.jsx -->
<g id="edge17" class="edge">
<title>client/src/Admin/index.js&#45;&gt;client/src/Admin/Admin.jsx</title>
<path fill="none" stroke="#757575" d="M1014.34,-319.52C1036.92,-322.34 1061.72,-325.43 1085.18,-328.36"/>
<polygon fill="#757575" stroke="#757575" points="1084.78,-331.84 1095.14,-329.6 1085.65,-324.89 1084.78,-331.84"/>
</g>
<!-- client/src/Main/Countdown/Countdown.jsx -->
<g id="node19" class="node">
<title>client/src/Main/Countdown/Countdown.jsx</title>
<path fill="none" stroke="#c6c5fe" d="M1597.33,-189C1597.33,-189 1344.67,-189 1344.67,-189 1340.83,-189 1337,-185.17 1337,-181.33 1337,-181.33 1337,-173.67 1337,-173.67 1337,-169.83 1340.83,-166 1344.67,-166 1344.67,-166 1597.33,-166 1597.33,-166 1601.17,-166 1605,-169.83 1605,-173.67 1605,-173.67 1605,-181.33 1605,-181.33 1605,-185.17 1601.17,-189 1597.33,-189"/>
<text text-anchor="middle" x="1471" y="-173.8" font-family="Arial" font-size="14.00" fill="#c6c5fe">client/src/Main/Countdown/Countdown.jsx</text>
</g>
<!-- client/src/Main/Countdown/countdown.helpers.js -->
<g id="node20" class="node">
<title>client/src/Main/Countdown/countdown.helpers.js</title>
<path fill="none" stroke="#c6c5fe" d="M2533.33,-191C2533.33,-191 2242.67,-191 2242.67,-191 2238.83,-191 2235,-187.17 2235,-183.33 2235,-183.33 2235,-175.67 2235,-175.67 2235,-171.83 2238.83,-168 2242.67,-168 2242.67,-168 2533.33,-168 2533.33,-168 2537.17,-168 2541,-171.83 2541,-175.67 2541,-175.67 2541,-183.33 2541,-183.33 2541,-187.17 2537.17,-191 2533.33,-191"/>
<text text-anchor="middle" x="2388" y="-175.8" font-family="Arial" font-size="14.00" fill="#c6c5fe">client/src/Main/Countdown/countdown.helpers.js</text>
</g>
<!-- client/src/Main/Countdown/Countdown.jsx&#45;&gt;client/src/Main/Countdown/countdown.helpers.js -->
<g id="edge18" class="edge">
<title>client/src/Main/Countdown/Countdown.jsx&#45;&gt;client/src/Main/Countdown/countdown.helpers.js</title>
<path fill="none" stroke="#757575" d="M1605.05,-177.79C1769.15,-178.15 2047.98,-178.76 2224.55,-179.14"/>
<polygon fill="#757575" stroke="#757575" points="2224.71,-182.65 2234.72,-179.17 2224.72,-175.65 2224.71,-182.65"/>
</g>
<!-- client/src/Main/Countdown/countdown.helpers.js&#45;&gt;client/src/Admin/Location/location.api.js -->
<g id="edge19" class="edge">
<title>client/src/Main/Countdown/countdown.helpers.js&#45;&gt;client/src/Admin/Location/location.api.js</title>
<path fill="none" stroke="#757575" d="M2479.26,-191.02C2517.78,-195.93 2562.87,-201.68 2602.41,-206.73"/>
<polygon fill="#757575" stroke="#757575" points="2601.98,-210.2 2612.34,-208 2602.86,-203.26 2601.98,-210.2"/>
</g>
<!-- client/src/Main/Countdown/countdown.helpers.test.js -->
<g id="node21" class="node">
<title>client/src/Main/Countdown/countdown.helpers.test.js</title>
<path fill="none" stroke="#cfffac" d="M324.33,-269C324.33,-269 7.67,-269 7.67,-269 3.83,-269 0,-265.17 0,-261.33 0,-261.33 0,-253.67 0,-253.67 0,-249.83 3.83,-246 7.67,-246 7.67,-246 324.33,-246 324.33,-246 328.17,-246 332,-249.83 332,-253.67 332,-253.67 332,-261.33 332,-261.33 332,-265.17 328.17,-269 324.33,-269"/>
<text text-anchor="middle" x="166" y="-253.8" font-family="Arial" font-size="14.00" fill="#cfffac">client/src/Main/Countdown/countdown.helpers.test.js</text>
</g>
<!-- client/src/Main/Countdown/index.js -->
<g id="node22" class="node">
<title>client/src/Main/Countdown/index.js</title>
<path fill="none" stroke="#c6c5fe" d="M1288.33,-188C1288.33,-188 1078.67,-188 1078.67,-188 1074.83,-188 1071,-184.17 1071,-180.33 1071,-180.33 1071,-172.67 1071,-172.67 1071,-168.83 1074.83,-165 1078.67,-165 1078.67,-165 1288.33,-165 1288.33,-165 1292.17,-165 1296,-168.83 1296,-172.67 1296,-172.67 1296,-180.33 1296,-180.33 1296,-184.17 1292.17,-188 1288.33,-188"/>
<text text-anchor="middle" x="1183.5" y="-172.8" font-family="Arial" font-size="14.00" fill="#c6c5fe">client/src/Main/Countdown/index.js</text>
</g>
<!-- client/src/Main/Countdown/index.js&#45;&gt;client/src/Main/Countdown/Countdown.jsx -->
<g id="edge20" class="edge">
<title>client/src/Main/Countdown/index.js&#45;&gt;client/src/Main/Countdown/Countdown.jsx</title>
<path fill="none" stroke="#757575" d="M1296.11,-176.89C1306.08,-176.93 1316.26,-176.96 1326.45,-177"/>
<polygon fill="#757575" stroke="#757575" points="1326.62,-180.5 1336.63,-177.03 1326.65,-173.5 1326.62,-180.5"/>
</g>
<!-- client/src/Main/Main.css -->
<g id="node23" class="node">
<title>client/src/Main/Main.css</title>
<path fill="none" stroke="#cfffac" d="M1256.33,-147C1256.33,-147 1110.67,-147 1110.67,-147 1106.83,-147 1103,-143.17 1103,-139.33 1103,-139.33 1103,-131.67 1103,-131.67 1103,-127.83 1106.83,-124 1110.67,-124 1110.67,-124 1256.33,-124 1256.33,-124 1260.17,-124 1264,-127.83 1264,-131.67 1264,-131.67 1264,-139.33 1264,-139.33 1264,-143.17 1260.17,-147 1256.33,-147"/>
<text text-anchor="middle" x="1183.5" y="-131.8" font-family="Arial" font-size="14.00" fill="#cfffac">client/src/Main/Main.css</text>
</g>
<!-- client/src/Main/Main.jsx -->
<g id="node24" class="node">
<title>client/src/Main/Main.jsx</title>
<path fill="none" stroke="#c6c5fe" d="M1004.33,-249C1004.33,-249 861.67,-249 861.67,-249 857.83,-249 854,-245.17 854,-241.33 854,-241.33 854,-233.67 854,-233.67 854,-229.83 857.83,-226 861.67,-226 861.67,-226 1004.33,-226 1004.33,-226 1008.17,-226 1012,-229.83 1012,-233.67 1012,-233.67 1012,-241.33 1012,-241.33 1012,-245.17 1008.17,-249 1004.33,-249"/>
<text text-anchor="middle" x="933" y="-233.8" font-family="Arial" font-size="14.00" fill="#c6c5fe">client/src/Main/Main.jsx</text>
</g>
<!-- client/src/Main/Main.jsx&#45;&gt;client/src/Main/Countdown/index.js -->
<g id="edge21" class="edge">
<title>client/src/Main/Main.jsx&#45;&gt;client/src/Main/Countdown/index.js</title>
<path fill="none" stroke="#757575" d="M967.03,-225.92C993.53,-216.95 1031.82,-204.71 1066,-196.5 1075.9,-194.12 1086.35,-191.91 1096.75,-189.9"/>
<polygon fill="#757575" stroke="#757575" points="1097.51,-193.32 1106.69,-188.03 1096.22,-186.44 1097.51,-193.32"/>
</g>
<!-- client/src/Main/Main.jsx&#45;&gt;client/src/Main/Main.css -->
<g id="edge22" class="edge">
<title>client/src/Main/Main.jsx&#45;&gt;client/src/Main/Main.css</title>
<path fill="none" stroke="#757575" d="M948.44,-225.87C971.7,-207.77 1019.59,-173.12 1066,-155.5 1074.52,-152.26 1083.6,-149.55 1092.77,-147.27"/>
<polygon fill="#757575" stroke="#757575" points="1093.8,-150.63 1102.75,-144.96 1092.22,-143.81 1093.8,-150.63"/>
</g>
<!-- client/src/Main/layout/Footer.jsx -->
<g id="node25" class="node">
<title>client/src/Main/layout/Footer.jsx</title>
<path fill="none" stroke="#cfffac" d="M1278.83,-311C1278.83,-311 1088.17,-311 1088.17,-311 1084.33,-311 1080.5,-307.17 1080.5,-303.33 1080.5,-303.33 1080.5,-295.67 1080.5,-295.67 1080.5,-291.83 1084.33,-288 1088.17,-288 1088.17,-288 1278.83,-288 1278.83,-288 1282.67,-288 1286.5,-291.83 1286.5,-295.67 1286.5,-295.67 1286.5,-303.33 1286.5,-303.33 1286.5,-307.17 1282.67,-311 1278.83,-311"/>
<text text-anchor="middle" x="1183.5" y="-295.8" font-family="Arial" font-size="14.00" fill="#cfffac">client/src/Main/layout/Footer.jsx</text>
</g>
<!-- client/src/Main/Main.jsx&#45;&gt;client/src/Main/layout/Footer.jsx -->
<g id="edge23" class="edge">
<title>client/src/Main/Main.jsx&#45;&gt;client/src/Main/layout/Footer.jsx</title>
<path fill="none" stroke="#757575" d="M967.05,-249C993.56,-257.93 1031.85,-270.15 1066,-278.5 1077.23,-281.25 1089.15,-283.8 1100.91,-286.11"/>
<polygon fill="#757575" stroke="#757575" points="1100.26,-289.55 1110.74,-287.99 1101.58,-282.67 1100.26,-289.55"/>
</g>
<!-- client/src/Main/layout/index.js -->
<g id="node26" class="node">
<title>client/src/Main/layout/index.js</title>
<path fill="none" stroke="#c6c5fe" d="M1272.33,-270C1272.33,-270 1094.67,-270 1094.67,-270 1090.83,-270 1087,-266.17 1087,-262.33 1087,-262.33 1087,-254.67 1087,-254.67 1087,-250.83 1090.83,-247 1094.67,-247 1094.67,-247 1272.33,-247 1272.33,-247 1276.17,-247 1280,-250.83 1280,-254.67 1280,-254.67 1280,-262.33 1280,-262.33 1280,-266.17 1276.17,-270 1272.33,-270"/>
<text text-anchor="middle" x="1183.5" y="-254.8" font-family="Arial" font-size="14.00" fill="#c6c5fe">client/src/Main/layout/index.js</text>
</g>
<!-- client/src/Main/Main.jsx&#45;&gt;client/src/Main/layout/index.js -->
<g id="edge24" class="edge">
<title>client/src/Main/Main.jsx&#45;&gt;client/src/Main/layout/index.js</title>
<path fill="none" stroke="#757575" d="M1012.29,-244.12C1032.67,-245.84 1054.98,-247.72 1076.54,-249.55"/>
<polygon fill="#757575" stroke="#757575" points="1076.46,-253.05 1086.72,-250.41 1077.05,-246.08 1076.46,-253.05"/>
</g>
<!-- client/src/Main/layout/logo&#45;twino.png -->
<g id="node27" class="node">
<title>client/src/Main/layout/logo&#45;twino.png</title>
<path fill="none" stroke="#cfffac" d="M1293.33,-229C1293.33,-229 1073.67,-229 1073.67,-229 1069.83,-229 1066,-225.17 1066,-221.33 1066,-221.33 1066,-213.67 1066,-213.67 1066,-209.83 1069.83,-206 1073.67,-206 1073.67,-206 1293.33,-206 1293.33,-206 1297.17,-206 1301,-209.83 1301,-213.67 1301,-213.67 1301,-221.33 1301,-221.33 1301,-225.17 1297.17,-229 1293.33,-229"/>
<text text-anchor="middle" x="1183.5" y="-213.8" font-family="Arial" font-size="14.00" fill="#cfffac">client/src/Main/layout/logo&#45;twino.png</text>
</g>
<!-- client/src/Main/Main.jsx&#45;&gt;client/src/Main/layout/logo&#45;twino.png -->
<g id="edge25" class="edge">
<title>client/src/Main/Main.jsx&#45;&gt;client/src/Main/layout/logo&#45;twino.png</title>
<path fill="none" stroke="#757575" d="M1012.29,-231.2C1026.16,-230.08 1040.92,-228.89 1055.73,-227.7"/>
<polygon fill="#757575" stroke="#757575" points="1056.29,-231.17 1065.98,-226.88 1055.73,-224.19 1056.29,-231.17"/>
</g>
<!-- client/src/Main/layout/Body.jsx -->
<g id="node30" class="node">
<title>client/src/Main/layout/Body.jsx</title>
<path fill="none" stroke="#cfffac" d="M1561.83,-231C1561.83,-231 1380.17,-231 1380.17,-231 1376.33,-231 1372.5,-227.17 1372.5,-223.33 1372.5,-223.33 1372.5,-215.67 1372.5,-215.67 1372.5,-211.83 1376.33,-208 1380.17,-208 1380.17,-208 1561.83,-208 1561.83,-208 1565.67,-208 1569.5,-211.83 1569.5,-215.67 1569.5,-215.67 1569.5,-223.33 1569.5,-223.33 1569.5,-227.17 1565.67,-231 1561.83,-231"/>
<text text-anchor="middle" x="1471" y="-215.8" font-family="Arial" font-size="14.00" fill="#cfffac">client/src/Main/layout/Body.jsx</text>
</g>
<!-- client/src/Main/layout/index.js&#45;&gt;client/src/Main/layout/Body.jsx -->
<g id="edge29" class="edge">
<title>client/src/Main/layout/index.js&#45;&gt;client/src/Main/layout/Body.jsx</title>
<path fill="none" stroke="#757575" d="M1269,-246.96C1302.52,-242.38 1341.22,-237.09 1375.65,-232.39"/>
<polygon fill="#757575" stroke="#757575" points="1376.28,-235.83 1385.72,-231.01 1375.33,-228.9 1376.28,-235.83"/>
</g>
<!-- client/src/Main/layout/Header.jsx -->
<g id="node31" class="node">
<title>client/src/Main/layout/Header.jsx</title>
<path fill="none" stroke="#cfffac" d="M1568.83,-272C1568.83,-272 1373.17,-272 1373.17,-272 1369.33,-272 1365.5,-268.17 1365.5,-264.33 1365.5,-264.33 1365.5,-256.67 1365.5,-256.67 1365.5,-252.83 1369.33,-249 1373.17,-249 1373.17,-249 1568.83,-249 1568.83,-249 1572.67,-249 1576.5,-252.83 1576.5,-256.67 1576.5,-256.67 1576.5,-264.33 1576.5,-264.33 1576.5,-268.17 1572.67,-272 1568.83,-272"/>
<text text-anchor="middle" x="1471" y="-256.8" font-family="Arial" font-size="14.00" fill="#cfffac">client/src/Main/layout/Header.jsx</text>
</g>
<!-- client/src/Main/layout/index.js&#45;&gt;client/src/Main/layout/Header.jsx -->
<g id="edge30" class="edge">
<title>client/src/Main/layout/index.js&#45;&gt;client/src/Main/layout/Header.jsx</title>
<path fill="none" stroke="#757575" d="M1280.36,-259.17C1304.28,-259.34 1330.18,-259.52 1354.92,-259.69"/>
<polygon fill="#757575" stroke="#757575" points="1355.05,-263.19 1365.07,-259.76 1355.1,-256.19 1355.05,-263.19"/>
</g>
<!-- client/src/Main/Main.routes.jsx -->
<g id="node28" class="node">
<title>client/src/Main/Main.routes.jsx</title>
<path fill="none" stroke="#c6c5fe" d="M792.33,-269C792.33,-269 608.67,-269 608.67,-269 604.83,-269 601,-265.17 601,-261.33 601,-261.33 601,-253.67 601,-253.67 601,-249.83 604.83,-246 608.67,-246 608.67,-246 792.33,-246 792.33,-246 796.17,-246 800,-249.83 800,-253.67 800,-253.67 800,-261.33 800,-261.33 800,-265.17 796.17,-269 792.33,-269"/>
<text text-anchor="middle" x="700.5" y="-253.8" font-family="Arial" font-size="14.00" fill="#c6c5fe">client/src/Main/Main.routes.jsx</text>
</g>
<!-- client/src/Main/Main.routes.jsx&#45;&gt;client/src/Admin/index.js -->
<g id="edge26" class="edge">
<title>client/src/Main/Main.routes.jsx&#45;&gt;client/src/Admin/index.js</title>
<path fill="none" stroke="#757575" d="M752.66,-269.04C787.57,-276.92 833.99,-287.39 870.86,-295.71"/>
<polygon fill="#757575" stroke="#757575" points="870.46,-299.21 880.99,-297.99 872,-292.38 870.46,-299.21"/>
</g>
<!-- client/src/Main/Main.routes.jsx&#45;&gt;client/src/Main/Main.jsx -->
<g id="edge27" class="edge">
<title>client/src/Main/Main.routes.jsx&#45;&gt;client/src/Main/Main.jsx</title>
<path fill="none" stroke="#757575" d="M800.26,-248.93C814.71,-247.68 829.52,-246.39 843.74,-245.16"/>
<polygon fill="#757575" stroke="#757575" points="844.33,-248.62 853.99,-244.27 843.72,-241.65 844.33,-248.62"/>
</g>
<!-- client/src/Main/index.js -->
<g id="node29" class="node">
<title>client/src/Main/index.js</title>
<path fill="none" stroke="#c6c5fe" d="M535.33,-269C535.33,-269 397.67,-269 397.67,-269 393.83,-269 390,-265.17 390,-261.33 390,-261.33 390,-253.67 390,-253.67 390,-249.83 393.83,-246 397.67,-246 397.67,-246 535.33,-246 535.33,-246 539.17,-246 543,-249.83 543,-253.67 543,-253.67 543,-261.33 543,-261.33 543,-265.17 539.17,-269 535.33,-269"/>
<text text-anchor="middle" x="466.5" y="-253.8" font-family="Arial" font-size="14.00" fill="#c6c5fe">client/src/Main/index.js</text>
</g>
<!-- client/src/Main/index.js&#45;&gt;client/src/Main/Main.routes.jsx -->
<g id="edge28" class="edge">
<title>client/src/Main/index.js&#45;&gt;client/src/Main/Main.routes.jsx</title>
<path fill="none" stroke="#757575" d="M543.14,-257.5C558.22,-257.5 574.34,-257.5 590.28,-257.5"/>
<polygon fill="#757575" stroke="#757575" points="590.72,-261 600.72,-257.5 590.72,-254 590.72,-261"/>
</g>
<!-- client/src/index.css -->
<g id="node32" class="node">
<title>client/src/index.css</title>
<path fill="none" stroke="#cfffac" d="M523.83,-228C523.83,-228 409.17,-228 409.17,-228 405.33,-228 401.5,-224.17 401.5,-220.33 401.5,-220.33 401.5,-212.67 401.5,-212.67 401.5,-208.83 405.33,-205 409.17,-205 409.17,-205 523.83,-205 523.83,-205 527.67,-205 531.5,-208.83 531.5,-212.67 531.5,-212.67 531.5,-220.33 531.5,-220.33 531.5,-224.17 527.67,-228 523.83,-228"/>
<text text-anchor="middle" x="466.5" y="-212.8" font-family="Arial" font-size="14.00" fill="#cfffac">client/src/index.css</text>
</g>
<!-- client/src/index.js -->
<g id="node33" class="node">
<title>client/src/index.js</title>
<path fill="none" stroke="#c6c5fe" d="M217.83,-228C217.83,-228 114.17,-228 114.17,-228 110.33,-228 106.5,-224.17 106.5,-220.33 106.5,-220.33 106.5,-212.67 106.5,-212.67 106.5,-208.83 110.33,-205 114.17,-205 114.17,-205 217.83,-205 217.83,-205 221.67,-205 225.5,-208.83 225.5,-212.67 225.5,-212.67 225.5,-220.33 225.5,-220.33 225.5,-224.17 221.67,-228 217.83,-228"/>
<text text-anchor="middle" x="166" y="-212.8" font-family="Arial" font-size="14.00" fill="#c6c5fe">client/src/index.js</text>
</g>
<!-- client/src/index.js&#45;&gt;client/src/Main/index.js -->
<g id="edge31" class="edge">
<title>client/src/index.js&#45;&gt;client/src/Main/index.js</title>
<path fill="none" stroke="#757575" d="M225.87,-223.12C257.38,-226.8 296.85,-231.61 332,-236.5 349.19,-238.89 367.6,-241.66 385.08,-244.38"/>
<polygon fill="#757575" stroke="#757575" points="384.82,-247.88 395.25,-245.97 385.91,-240.96 384.82,-247.88"/>
</g>
<!-- client/src/index.js&#45;&gt;client/src/index.css -->
<g id="edge32" class="edge">
<title>client/src/index.js&#45;&gt;client/src/index.css</title>
<path fill="none" stroke="#757575" d="M225.62,-216.5C273.05,-216.5 340.14,-216.5 391.32,-216.5"/>
<polygon fill="#757575" stroke="#757575" points="391.33,-220 401.33,-216.5 391.33,-213 391.33,-220"/>
</g>
<!-- client/src/serviceWorker.js -->
<g id="node34" class="node">
<title>client/src/serviceWorker.js</title>
<path fill="none" stroke="#cfffac" d="M545.33,-187C545.33,-187 387.67,-187 387.67,-187 383.83,-187 380,-183.17 380,-179.33 380,-179.33 380,-171.67 380,-171.67 380,-167.83 383.83,-164 387.67,-164 387.67,-164 545.33,-164 545.33,-164 549.17,-164 553,-167.83 553,-171.67 553,-171.67 553,-179.33 553,-179.33 553,-183.17 549.17,-187 545.33,-187"/>
<text text-anchor="middle" x="466.5" y="-171.8" font-family="Arial" font-size="14.00" fill="#cfffac">client/src/serviceWorker.js</text>
</g>
<!-- client/src/index.js&#45;&gt;client/src/serviceWorker.js -->
<g id="edge33" class="edge">
<title>client/src/index.js&#45;&gt;client/src/serviceWorker.js</title>
<path fill="none" stroke="#757575" d="M225.62,-208.45C267.15,-202.74 323.75,-194.97 371.54,-188.41"/>
<polygon fill="#757575" stroke="#757575" points="372.16,-191.85 381.59,-187.02 371.21,-184.92 372.16,-191.85"/>
</g>
<!-- client/src/setupTests.js -->
<g id="node35" class="node">
<title>client/src/setupTests.js</title>
<path fill="none" stroke="#cfffac" d="M234.33,-310C234.33,-310 97.67,-310 97.67,-310 93.83,-310 90,-306.17 90,-302.33 90,-302.33 90,-294.67 90,-294.67 90,-290.83 93.83,-287 97.67,-287 97.67,-287 234.33,-287 234.33,-287 238.17,-287 242,-290.83 242,-294.67 242,-294.67 242,-302.33 242,-302.33 242,-306.17 238.17,-310 234.33,-310"/>
<text text-anchor="middle" x="166" y="-294.8" font-family="Arial" font-size="14.00" fill="#cfffac">client/src/setupTests.js</text>
</g>
<!-- components/Button/Button.stories.tsx -->
<g id="node36" class="node">
<title>components/Button/Button.stories.tsx</title>
<path fill="none" stroke="#c6c5fe" d="M278.83,-146C278.83,-146 53.17,-146 53.17,-146 49.33,-146 45.5,-142.17 45.5,-138.33 45.5,-138.33 45.5,-130.67 45.5,-130.67 45.5,-126.83 49.33,-123 53.17,-123 53.17,-123 278.83,-123 278.83,-123 282.67,-123 286.5,-126.83 286.5,-130.67 286.5,-130.67 286.5,-138.33 286.5,-138.33 286.5,-142.17 282.67,-146 278.83,-146"/>
<text text-anchor="middle" x="166" y="-130.8" font-family="Arial" font-size="14.00" fill="#c6c5fe">components/Button/Button.stories.tsx</text>
</g>
<!-- components/Button/Button.stories.tsx&#45;&gt;components/Button/Button.tsx -->
<g id="edge34" class="edge">
<title>components/Button/Button.stories.tsx&#45;&gt;components/Button/Button.tsx</title>
<path fill="none" stroke="#757575" d="M286.69,-134.5C310.15,-134.5 334.61,-134.5 357.65,-134.5"/>
<polygon fill="#757575" stroke="#757575" points="357.78,-138 367.78,-134.5 357.78,-131 357.78,-138"/>
</g>
<!-- components/Tooltip/Tooltip.tsx -->
<g id="node37" class="node">
<title>components/Tooltip/Tooltip.tsx</title>
<path fill="none" stroke="#cfffac" d="M256.83,-351C256.83,-351 75.17,-351 75.17,-351 71.33,-351 67.5,-347.17 67.5,-343.33 67.5,-343.33 67.5,-335.67 67.5,-335.67 67.5,-331.83 71.33,-328 75.17,-328 75.17,-328 256.83,-328 256.83,-328 260.67,-328 264.5,-331.83 264.5,-335.67 264.5,-335.67 264.5,-343.33 264.5,-343.33 264.5,-347.17 260.67,-351 256.83,-351"/>
<text text-anchor="middle" x="166" y="-335.8" font-family="Arial" font-size="14.00" fill="#cfffac">components/Tooltip/Tooltip.tsx</text>
</g>
<!-- jest.config.js -->
<g id="node38" class="node">
<title>jest.config.js</title>
<path fill="none" stroke="#cfffac" d="M203.83,-392C203.83,-392 128.17,-392 128.17,-392 124.33,-392 120.5,-388.17 120.5,-384.33 120.5,-384.33 120.5,-376.67 120.5,-376.67 120.5,-372.83 124.33,-369 128.17,-369 128.17,-369 203.83,-369 203.83,-369 207.67,-369 211.5,-372.83 211.5,-376.67 211.5,-376.67 211.5,-384.33 211.5,-384.33 211.5,-388.17 207.67,-392 203.83,-392"/>
<text text-anchor="middle" x="166" y="-376.8" font-family="Arial" font-size="14.00" fill="#cfffac">jest.config.js</text>
</g>
<!-- jest.setup.js -->
<g id="node39" class="node">
<title>jest.setup.js</title>
<path fill="none" stroke="#cfffac" d="M202.33,-433C202.33,-433 129.67,-433 129.67,-433 125.83,-433 122,-429.17 122,-425.33 122,-425.33 122,-417.67 122,-417.67 122,-413.83 125.83,-410 129.67,-410 129.67,-410 202.33,-410 202.33,-410 206.17,-410 210,-413.83 210,-417.67 210,-417.67 210,-425.33 210,-425.33 210,-429.17 206.17,-433 202.33,-433"/>
<text text-anchor="middle" x="166" y="-417.8" font-family="Arial" font-size="14.00" fill="#cfffac">jest.setup.js</text>
</g>
<!-- middleware.ts -->
<g id="node40" class="node">
<title>middleware.ts</title>
<path fill="none" stroke="#cfffac" d="M208.83,-474C208.83,-474 123.17,-474 123.17,-474 119.33,-474 115.5,-470.17 115.5,-466.33 115.5,-466.33 115.5,-458.67 115.5,-458.67 115.5,-454.83 119.33,-451 123.17,-451 123.17,-451 208.83,-451 208.83,-451 212.67,-451 216.5,-454.83 216.5,-458.67 216.5,-458.67 216.5,-466.33 216.5,-466.33 216.5,-470.17 212.67,-474 208.83,-474"/>
<text text-anchor="middle" x="166" y="-458.8" font-family="Arial" font-size="14.00" fill="#cfffac">middleware.ts</text>
</g>
<!-- report&#45;bundle&#45;size.js -->
<g id="node41" class="node">
<title>report&#45;bundle&#45;size.js</title>
<path fill="none" stroke="#cfffac" d="M227.83,-515C227.83,-515 104.17,-515 104.17,-515 100.33,-515 96.5,-511.17 96.5,-507.33 96.5,-507.33 96.5,-499.67 96.5,-499.67 96.5,-495.83 100.33,-492 104.17,-492 104.17,-492 227.83,-492 227.83,-492 231.67,-492 235.5,-495.83 235.5,-499.67 235.5,-499.67 235.5,-507.33 235.5,-507.33 235.5,-511.17 231.67,-515 227.83,-515"/>
<text text-anchor="middle" x="166" y="-499.8" font-family="Arial" font-size="14.00" fill="#cfffac">report&#45;bundle&#45;size.js</text>
</g>
<!-- server/app/app.js -->
<g id="node42" class="node">
<title>server/app/app.js</title>
<path fill="none" stroke="#c6c5fe" d="M518.83,-556C518.83,-556 414.17,-556 414.17,-556 410.33,-556 406.5,-552.17 406.5,-548.33 406.5,-548.33 406.5,-540.67 406.5,-540.67 406.5,-536.83 410.33,-533 414.17,-533 414.17,-533 518.83,-533 518.83,-533 522.67,-533 526.5,-536.83 526.5,-540.67 526.5,-540.67 526.5,-548.33 526.5,-548.33 526.5,-552.17 522.67,-556 518.83,-556"/>
<text text-anchor="middle" x="466.5" y="-540.8" font-family="Arial" font-size="14.00" fill="#c6c5fe">server/app/app.js</text>
</g>
<!-- server/app/location/index.js -->
<g id="node43" class="node">
<title>server/app/location/index.js</title>
<path fill="none" stroke="#c6c5fe" d="M782.83,-606C782.83,-606 618.17,-606 618.17,-606 614.33,-606 610.5,-602.17 610.5,-598.33 610.5,-598.33 610.5,-590.67 610.5,-590.67 610.5,-586.83 614.33,-583 618.17,-583 618.17,-583 782.83,-583 782.83,-583 786.67,-583 790.5,-586.83 790.5,-590.67 790.5,-590.67 790.5,-598.33 790.5,-598.33 790.5,-602.17 786.67,-606 782.83,-606"/>
<text text-anchor="middle" x="700.5" y="-590.8" font-family="Arial" font-size="14.00" fill="#c6c5fe">server/app/location/index.js</text>
</g>
<!-- server/app/app.js&#45;&gt;server/app/location/index.js -->
<g id="edge35" class="edge">
<title>server/app/app.js&#45;&gt;server/app/location/index.js</title>
<path fill="none" stroke="#757575" d="M521.02,-556.03C555.27,-563.42 599.87,-573.03 635.93,-580.8"/>
<polygon fill="#757575" stroke="#757575" points="635.34,-584.25 645.85,-582.94 636.81,-577.41 635.34,-584.25"/>
</g>
<!-- server/app/main/main.js -->
<g id="node44" class="node">
<title>server/app/main/main.js</title>
<path fill="none" stroke="#c6c5fe" d="M773.33,-671C773.33,-671 627.67,-671 627.67,-671 623.83,-671 620,-667.17 620,-663.33 620,-663.33 620,-655.67 620,-655.67 620,-651.83 623.83,-648 627.67,-648 627.67,-648 773.33,-648 773.33,-648 777.17,-648 781,-651.83 781,-655.67 781,-655.67 781,-663.33 781,-663.33 781,-667.17 777.17,-671 773.33,-671"/>
<text text-anchor="middle" x="700.5" y="-655.8" font-family="Arial" font-size="14.00" fill="#c6c5fe">server/app/main/main.js</text>
</g>
<!-- server/app/app.js&#45;&gt;server/app/main/main.js -->
<g id="edge36" class="edge">
<title>server/app/app.js&#45;&gt;server/app/main/main.js</title>
<path fill="none" stroke="#757575" d="M488.59,-556.01C514.75,-570.19 560.82,-594.8 601,-614.5 621.56,-624.58 644.85,-635.25 663.61,-643.67"/>
<polygon fill="#757575" stroke="#757575" points="662.42,-646.97 672.98,-647.85 665.28,-640.58 662.42,-646.97"/>
</g>
<!-- server/app/user/index.js -->
<g id="node45" class="node">
<title>server/app/user/index.js</title>
<path fill="none" stroke="#c6c5fe" d="M772.83,-556C772.83,-556 628.17,-556 628.17,-556 624.33,-556 620.5,-552.17 620.5,-548.33 620.5,-548.33 620.5,-540.67 620.5,-540.67 620.5,-536.83 624.33,-533 628.17,-533 628.17,-533 772.83,-533 772.83,-533 776.67,-533 780.5,-536.83 780.5,-540.67 780.5,-540.67 780.5,-548.33 780.5,-548.33 780.5,-552.17 776.67,-556 772.83,-556"/>
<text text-anchor="middle" x="700.5" y="-540.8" font-family="Arial" font-size="14.00" fill="#c6c5fe">server/app/user/index.js</text>
</g>
<!-- server/app/app.js&#45;&gt;server/app/user/index.js -->
<g id="edge37" class="edge">
<title>server/app/app.js&#45;&gt;server/app/user/index.js</title>
<path fill="none" stroke="#757575" d="M526.64,-544.5C551.99,-544.5 582.15,-544.5 610.13,-544.5"/>
<polygon fill="#757575" stroke="#757575" points="610.32,-548 620.32,-544.5 610.32,-541 610.32,-548"/>
</g>
<!-- server/app/utilities/middlewares.js -->
<g id="node46" class="node">
<title>server/app/utilities/middlewares.js</title>
<path fill="none" stroke="#c6c5fe" d="M1863.33,-517C1863.33,-517 1659.67,-517 1659.67,-517 1655.83,-517 1652,-513.17 1652,-509.33 1652,-509.33 1652,-501.67 1652,-501.67 1652,-497.83 1655.83,-494 1659.67,-494 1659.67,-494 1863.33,-494 1863.33,-494 1867.17,-494 1871,-497.83 1871,-501.67 1871,-501.67 1871,-509.33 1871,-509.33 1871,-513.17 1867.17,-517 1863.33,-517"/>
<text text-anchor="middle" x="1761.5" y="-501.8" font-family="Arial" font-size="14.00" fill="#c6c5fe">server/app/utilities/middlewares.js</text>
</g>
<!-- server/app/app.js&#45;&gt;server/app/utilities/middlewares.js -->
<g id="edge38" class="edge">
<title>server/app/app.js&#45;&gt;server/app/utilities/middlewares.js</title>
<path fill="none" stroke="#757575" d="M522.27,-532.98C608.85,-515.81 782.83,-485.5 932,-485.5 932,-485.5 932,-485.5 1184.5,-485.5 1342.86,-485.5 1525.56,-493.14 1641.98,-498.98"/>
<polygon fill="#757575" stroke="#757575" points="1641.82,-502.48 1651.99,-499.49 1642.18,-495.49 1641.82,-502.48"/>
</g>
<!-- server/app/utilities/pipe.js -->
<g id="node47" class="node">
<title>server/app/utilities/pipe.js</title>
<path fill="none" stroke="#cfffac" d="M776.83,-457C776.83,-457 624.17,-457 624.17,-457 620.33,-457 616.5,-453.17 616.5,-449.33 616.5,-449.33 616.5,-441.67 616.5,-441.67 616.5,-437.83 620.33,-434 624.17,-434 624.17,-434 776.83,-434 776.83,-434 780.67,-434 784.5,-437.83 784.5,-441.67 784.5,-441.67 784.5,-449.33 784.5,-449.33 784.5,-453.17 780.67,-457 776.83,-457"/>
<text text-anchor="middle" x="700.5" y="-441.8" font-family="Arial" font-size="14.00" fill="#cfffac">server/app/utilities/pipe.js</text>
</g>
<!-- server/app/app.js&#45;&gt;server/app/utilities/pipe.js -->
<g id="edge39" class="edge">
<title>server/app/app.js&#45;&gt;server/app/utilities/pipe.js</title>
<path fill="none" stroke="#757575" d="M485.38,-532.88C510.37,-517.08 557.57,-488.81 601,-471.5 612.23,-467.02 624.49,-463.08 636.42,-459.71"/>
<polygon fill="#757575" stroke="#757575" points="637.61,-463.02 646.34,-457.02 635.77,-456.26 637.61,-463.02"/>
</g>
<!-- server/app/location/location.js -->
<g id="node48" class="node">
<title>server/app/location/location.js</title>
<path fill="none" stroke="#c6c5fe" d="M1022.33,-615C1022.33,-615 843.67,-615 843.67,-615 839.83,-615 836,-611.17 836,-607.33 836,-607.33 836,-599.67 836,-599.67 836,-595.83 839.83,-592 843.67,-592 843.67,-592 1022.33,-592 1022.33,-592 1026.17,-592 1030,-595.83 1030,-599.67 1030,-599.67 1030,-607.33 1030,-607.33 1030,-611.17 1026.17,-615 1022.33,-615"/>
<text text-anchor="middle" x="933" y="-599.8" font-family="Arial" font-size="14.00" fill="#c6c5fe">server/app/location/location.js</text>
</g>
<!-- server/app/location/index.js&#45;&gt;server/app/location/location.js -->
<g id="edge40" class="edge">
<title>server/app/location/index.js&#45;&gt;server/app/location/location.js</title>
<path fill="none" stroke="#757575" d="M790.62,-597.98C802.08,-598.43 813.91,-598.89 825.61,-599.35"/>
<polygon fill="#757575" stroke="#757575" points="825.73,-602.85 835.86,-599.75 826,-595.86 825.73,-602.85"/>
</g>
<!-- server/app/utilities/constants.js -->
<g id="node52" class="node">
<title>server/app/utilities/constants.js</title>
<path fill="none" stroke="#cfffac" d="M2480.33,-615C2480.33,-615 2295.67,-615 2295.67,-615 2291.83,-615 2288,-611.17 2288,-607.33 2288,-607.33 2288,-599.67 2288,-599.67 2288,-595.83 2291.83,-592 2295.67,-592 2295.67,-592 2480.33,-592 2480.33,-592 2484.17,-592 2488,-595.83 2488,-599.67 2488,-599.67 2488,-607.33 2488,-607.33 2488,-611.17 2484.17,-615 2480.33,-615"/>
<text text-anchor="middle" x="2388" y="-599.8" font-family="Arial" font-size="14.00" fill="#cfffac">server/app/utilities/constants.js</text>
</g>
<!-- server/app/main/main.js&#45;&gt;server/app/utilities/constants.js -->
<g id="edge47" class="edge">
<title>server/app/main/main.js&#45;&gt;server/app/utilities/constants.js</title>
<path fill="none" stroke="#757575" d="M781.02,-665.9C876.35,-673.01 1040.99,-683.5 1182.5,-683.5 1182.5,-683.5 1182.5,-683.5 1762.5,-683.5 1956.68,-683.5 2007.91,-699 2199,-664.5 2252.94,-654.76 2312.75,-633.43 2350.12,-618.76"/>
<polygon fill="#757575" stroke="#757575" points="2351.58,-621.95 2359.58,-615 2348.99,-615.44 2351.58,-621.95"/>
</g>
<!-- server/app/user/user.js -->
<g id="node55" class="node">
<title>server/app/user/user.js</title>
<path fill="none" stroke="#c6c5fe" d="M1001.83,-556C1001.83,-556 864.17,-556 864.17,-556 860.33,-556 856.5,-552.17 856.5,-548.33 856.5,-548.33 856.5,-540.67 856.5,-540.67 856.5,-536.83 860.33,-533 864.17,-533 864.17,-533 1001.83,-533 1001.83,-533 1005.67,-533 1009.5,-536.83 1009.5,-540.67 1009.5,-540.67 1009.5,-548.33 1009.5,-548.33 1009.5,-552.17 1005.67,-556 1001.83,-556"/>
<text text-anchor="middle" x="933" y="-540.8" font-family="Arial" font-size="14.00" fill="#c6c5fe">server/app/user/user.js</text>
</g>
<!-- server/app/user/index.js&#45;&gt;server/app/user/user.js -->
<g id="edge48" class="edge">
<title>server/app/user/index.js&#45;&gt;server/app/user/user.js</title>
<path fill="none" stroke="#757575" d="M780.5,-544.5C801.65,-544.5 824.62,-544.5 846.12,-544.5"/>
<polygon fill="#757575" stroke="#757575" points="846.21,-548 856.21,-544.5 846.21,-541 846.21,-548"/>
</g>
<!-- server/app/utilities/middlewares.js&#45;&gt;server/app/utilities/constants.js -->
<g id="edge53" class="edge">
<title>server/app/utilities/middlewares.js&#45;&gt;server/app/utilities/constants.js</title>
<path fill="none" stroke="#757575" d="M1871.3,-511.97C1960.05,-518.44 2088.38,-530.52 2199,-551.5 2248.78,-560.94 2304.6,-577.11 2342.38,-588.92"/>
<polygon fill="#757575" stroke="#757575" points="2341.48,-592.3 2352.07,-591.97 2343.58,-585.62 2341.48,-592.3"/>
</g>
<!-- server/app/location/location.router.js -->
<g id="node51" class="node">
<title>server/app/location/location.router.js</title>
<path fill="none" stroke="#c6c5fe" d="M1292.33,-655C1292.33,-655 1074.67,-655 1074.67,-655 1070.83,-655 1067,-651.17 1067,-647.33 1067,-647.33 1067,-639.67 1067,-639.67 1067,-635.83 1070.83,-632 1074.67,-632 1074.67,-632 1292.33,-632 1292.33,-632 1296.17,-632 1300,-635.83 1300,-639.67 1300,-639.67 1300,-647.33 1300,-647.33 1300,-651.17 1296.17,-655 1292.33,-655"/>
<text text-anchor="middle" x="1183.5" y="-639.8" font-family="Arial" font-size="14.00" fill="#c6c5fe">server/app/location/location.router.js</text>
</g>
<!-- server/app/location/location.js&#45;&gt;server/app/location/location.router.js -->
<g id="edge42" class="edge">
<title>server/app/location/location.js&#45;&gt;server/app/location/location.router.js</title>
<path fill="none" stroke="#757575" d="M1005.54,-615.02C1035.3,-619.81 1070.01,-625.39 1100.77,-630.34"/>
<polygon fill="#757575" stroke="#757575" points="1100.6,-633.86 1111.03,-632 1101.72,-626.95 1100.6,-633.86"/>
</g>
<!-- server/app/location/location.js&#45;&gt;server/app/utilities/constants.js -->
<g id="edge43" class="edge">
<title>server/app/location/location.js&#45;&gt;server/app/utilities/constants.js</title>
<path fill="none" stroke="#757575" d="M1030.34,-603.5C1137.64,-603.5 1316.23,-603.5 1470,-603.5 1470,-603.5 1470,-603.5 1762.5,-603.5 1942.96,-603.5 2152.75,-603.5 2277.45,-603.5"/>
<polygon fill="#757575" stroke="#757575" points="2277.76,-607 2287.76,-603.5 2277.76,-600 2277.76,-607"/>
</g>
<!-- server/app/location/location.helpers.js -->
<g id="node49" class="node">
<title>server/app/location/location.helpers.js</title>
<path fill="none" stroke="#c6c5fe" d="M1584.33,-655C1584.33,-655 1357.67,-655 1357.67,-655 1353.83,-655 1350,-651.17 1350,-647.33 1350,-647.33 1350,-639.67 1350,-639.67 1350,-635.83 1353.83,-632 1357.67,-632 1357.67,-632 1584.33,-632 1584.33,-632 1588.17,-632 1592,-635.83 1592,-639.67 1592,-639.67 1592,-647.33 1592,-647.33 1592,-651.17 1588.17,-655 1584.33,-655"/>
<text text-anchor="middle" x="1471" y="-639.8" font-family="Arial" font-size="14.00" fill="#c6c5fe">server/app/location/location.helpers.js</text>
</g>
<!-- server/app/location/location.service.js -->
<g id="node50" class="node">
<title>server/app/location/location.service.js</title>
<path fill="none" stroke="#c6c5fe" d="M1874.33,-655C1874.33,-655 1648.67,-655 1648.67,-655 1644.83,-655 1641,-651.17 1641,-647.33 1641,-647.33 1641,-639.67 1641,-639.67 1641,-635.83 1644.83,-632 1648.67,-632 1648.67,-632 1874.33,-632 1874.33,-632 1878.17,-632 1882,-635.83 1882,-639.67 1882,-639.67 1882,-647.33 1882,-647.33 1882,-651.17 1878.17,-655 1874.33,-655"/>
<text text-anchor="middle" x="1761.5" y="-639.8" font-family="Arial" font-size="14.00" fill="#c6c5fe">server/app/location/location.service.js</text>
</g>
<!-- server/app/location/location.helpers.js&#45;&gt;server/app/location/location.service.js -->
<g id="edge41" class="edge">
<title>server/app/location/location.helpers.js&#45;&gt;server/app/location/location.service.js</title>
<path fill="none" stroke="#757575" d="M1592.26,-643.5C1604.95,-643.5 1617.89,-643.5 1630.68,-643.5"/>
<polygon fill="#757575" stroke="#757575" points="1630.9,-647 1640.9,-643.5 1630.9,-640 1630.9,-647"/>
</g>
<!-- server/app/utilities/database.js -->
<g id="node53" class="node">
<title>server/app/utilities/database.js</title>
<path fill="none" stroke="#c6c5fe" d="M2149.83,-655C2149.83,-655 1967.17,-655 1967.17,-655 1963.33,-655 1959.5,-651.17 1959.5,-647.33 1959.5,-647.33 1959.5,-639.67 1959.5,-639.67 1959.5,-635.83 1963.33,-632 1967.17,-632 1967.17,-632 2149.83,-632 2149.83,-632 2153.67,-632 2157.5,-635.83 2157.5,-639.67 2157.5,-639.67 2157.5,-647.33 2157.5,-647.33 2157.5,-651.17 2153.67,-655 2149.83,-655"/>
<text text-anchor="middle" x="2058.5" y="-639.8" font-family="Arial" font-size="14.00" fill="#c6c5fe">server/app/utilities/database.js</text>
</g>
<!-- server/app/location/location.service.js&#45;&gt;server/app/utilities/database.js -->
<g id="edge45" class="edge">
<title>server/app/location/location.service.js&#45;&gt;server/app/utilities/database.js</title>
<path fill="none" stroke="#757575" d="M1882.06,-643.5C1904.26,-643.5 1927.34,-643.5 1949.17,-643.5"/>
<polygon fill="#757575" stroke="#757575" points="1949.45,-647 1959.45,-643.5 1949.45,-640 1949.45,-647"/>
</g>
<!-- server/app/location/location.router.js&#45;&gt;server/app/location/location.helpers.js -->
<g id="edge44" class="edge">
<title>server/app/location/location.router.js&#45;&gt;server/app/location/location.helpers.js</title>
<path fill="none" stroke="#757575" d="M1300.21,-643.5C1313.27,-643.5 1326.64,-643.5 1339.86,-643.5"/>
<polygon fill="#757575" stroke="#757575" points="1339.94,-647 1349.94,-643.5 1339.94,-640 1339.94,-647"/>
</g>
<!-- server/app/utilities/database.js&#45;&gt;server/app/utilities/constants.js -->
<g id="edge52" class="edge">
<title>server/app/utilities/database.js&#45;&gt;server/app/utilities/constants.js</title>
<path fill="none" stroke="#757575" d="M2153.79,-631.98C2194.11,-627.06 2241.34,-621.29 2282.71,-616.24"/>
<polygon fill="#757575" stroke="#757575" points="2283.31,-619.69 2292.81,-615 2282.46,-612.74 2283.31,-619.69"/>
</g>
<!-- server/app/main/index.js -->
<g id="node54" class="node">
<title>server/app/main/index.js</title>
<path fill="none" stroke="#c6c5fe" d="M540.83,-671C540.83,-671 392.17,-671 392.17,-671 388.33,-671 384.5,-667.17 384.5,-663.33 384.5,-663.33 384.5,-655.67 384.5,-655.67 384.5,-651.83 388.33,-648 392.17,-648 392.17,-648 540.83,-648 540.83,-648 544.67,-648 548.5,-651.83 548.5,-655.67 548.5,-655.67 548.5,-663.33 548.5,-663.33 548.5,-667.17 544.67,-671 540.83,-671"/>
<text text-anchor="middle" x="466.5" y="-655.8" font-family="Arial" font-size="14.00" fill="#c6c5fe">server/app/main/index.js</text>
</g>
<!-- server/app/main/index.js&#45;&gt;server/app/main/main.js -->
<g id="edge46" class="edge">
<title>server/app/main/index.js&#45;&gt;server/app/main/main.js</title>
<path fill="none" stroke="#757575" d="M548.64,-659.5C568.43,-659.5 589.7,-659.5 609.86,-659.5"/>
<polygon fill="#757575" stroke="#757575" points="609.97,-663 619.97,-659.5 609.97,-656 609.97,-663"/>
</g>
<!-- server/app/user/user.js&#45;&gt;server/app/utilities/constants.js -->
<g id="edge50" class="edge">
<title>server/app/user/user.js&#45;&gt;server/app/utilities/constants.js</title>
<path fill="none" stroke="#757575" d="M1009.86,-549.34C1113.67,-555.55 1305.86,-565.5 1470,-565.5 1470,-565.5 1470,-565.5 1762.5,-565.5 1943.29,-565.5 2152.99,-581.56 2277.57,-592.8"/>
<polygon fill="#757575" stroke="#757575" points="2277.6,-596.32 2287.88,-593.74 2278.23,-589.35 2277.6,-596.32"/>
</g>
<!-- server/app/user/user.router.js -->
<g id="node57" class="node">
<title>server/app/user/user.router.js</title>
<path fill="none" stroke="#c6c5fe" d="M1271.33,-537C1271.33,-537 1095.67,-537 1095.67,-537 1091.83,-537 1088,-533.17 1088,-529.33 1088,-529.33 1088,-521.67 1088,-521.67 1088,-517.83 1091.83,-514 1095.67,-514 1095.67,-514 1271.33,-514 1271.33,-514 1275.17,-514 1279,-517.83 1279,-521.67 1279,-521.67 1279,-529.33 1279,-529.33 1279,-533.17 1275.17,-537 1271.33,-537"/>
<text text-anchor="middle" x="1183.5" y="-521.8" font-family="Arial" font-size="14.00" fill="#c6c5fe">server/app/user/user.router.js</text>
</g>
<!-- server/app/user/user.js&#45;&gt;server/app/user/user.router.js -->
<g id="edge49" class="edge">
<title>server/app/user/user.js&#45;&gt;server/app/user/user.router.js</title>
<path fill="none" stroke="#757575" d="M1009.57,-538.72C1031.09,-537.08 1054.92,-535.25 1077.84,-533.5"/>
<polygon fill="#757575" stroke="#757575" points="1078.24,-536.98 1087.95,-532.73 1077.71,-530 1078.24,-536.98"/>
</g>
<!-- server/app/user/user.helpers.js -->
<g id="node56" class="node">
<title>server/app/user/user.helpers.js</title>
<path fill="none" stroke="#cfffac" d="M1563.83,-537C1563.83,-537 1378.17,-537 1378.17,-537 1374.33,-537 1370.5,-533.17 1370.5,-529.33 1370.5,-529.33 1370.5,-521.67 1370.5,-521.67 1370.5,-517.83 1374.33,-514 1378.17,-514 1378.17,-514 1563.83,-514 1563.83,-514 1567.67,-514 1571.5,-517.83 1571.5,-521.67 1571.5,-521.67 1571.5,-529.33 1571.5,-529.33 1571.5,-533.17 1567.67,-537 1563.83,-537"/>
<text text-anchor="middle" x="1471" y="-521.8" font-family="Arial" font-size="14.00" fill="#cfffac">server/app/user/user.helpers.js</text>
</g>
<!-- server/app/user/user.router.js&#45;&gt;server/app/user/user.helpers.js -->
<g id="edge51" class="edge">
<title>server/app/user/user.router.js&#45;&gt;server/app/user/user.helpers.js</title>
<path fill="none" stroke="#757575" d="M1279.17,-525.5C1305.08,-525.5 1333.38,-525.5 1360.06,-525.5"/>
<polygon fill="#757575" stroke="#757575" points="1360.2,-529 1370.2,-525.5 1360.2,-522 1360.2,-529"/>
</g>
<!-- server/index.js -->
<g id="node58" class="node">
<title>server/index.js</title>
<path fill="none" stroke="#c6c5fe" d="M210.33,-556C210.33,-556 121.67,-556 121.67,-556 117.83,-556 114,-552.17 114,-548.33 114,-548.33 114,-540.67 114,-540.67 114,-536.83 117.83,-533 121.67,-533 121.67,-533 210.33,-533 210.33,-533 214.17,-533 218,-536.83 218,-540.67 218,-540.67 218,-548.33 218,-548.33 218,-552.17 214.17,-556 210.33,-556"/>
<text text-anchor="middle" x="166" y="-540.8" font-family="Arial" font-size="14.00" fill="#c6c5fe">server/index.js</text>
</g>
<!-- server/index.js&#45;&gt;server/app/app.js -->
<g id="edge54" class="edge">
<title>server/index.js&#45;&gt;server/app/app.js</title>
<path fill="none" stroke="#757575" d="M218.31,-544.5C267.41,-544.5 341.81,-544.5 396.16,-544.5"/>
<polygon fill="#757575" stroke="#757575" points="396.41,-548 406.41,-544.5 396.41,-541 396.41,-548"/>
</g>
</g>
</svg>
